
<svg width="217" height="40" viewBox="0 0 217 40" fill="none" xmlns="http://www.w3.org/2000/svg">
<path fill-rule="evenodd" clip-rule="evenodd" d="M141.908 39.9142V8.51172H144.481V14.4042C145.022 13.1867 145.775 12.0867 146.74 11.0992C147.705 10.1142 148.841 9.33172 150.148 8.75422C151.454 8.17672 152.856 7.88672 154.356 7.88672C156.52 7.88672 158.496 8.43672 160.289 9.53922C162.082 10.6417 163.496 12.1367 164.532 14.0217C165.567 15.9092 166.084 17.9767 166.084 20.2267C166.084 22.4767 165.565 24.5642 164.532 26.4442C163.496 28.3242 162.082 29.8117 160.289 30.9042C158.496 31.9967 156.525 32.5442 154.378 32.5442C152.971 32.5442 151.627 32.2867 150.346 31.7692C149.062 31.2542 147.916 30.5092 146.903 29.5392C145.89 28.5692 145.107 27.4292 144.551 26.1192L144.573 28.7067V39.9142H141.908ZM158.714 28.7542C160.151 27.9067 161.294 26.7367 162.144 25.2417C162.995 23.7467 163.418 22.0692 163.418 20.2042C163.418 18.3392 162.997 16.7067 162.154 15.2117C161.312 13.7167 160.168 12.5417 158.724 11.6867C157.28 10.8317 155.7 10.4042 153.985 10.4042C152.269 10.4042 150.692 10.8392 149.255 11.7092C147.818 12.5792 146.677 13.7617 145.835 15.2567C144.992 16.7517 144.571 18.3992 144.571 20.2017C144.571 22.0042 144.992 23.6992 145.835 25.1942C146.677 26.6892 147.821 27.8667 149.265 28.7292C150.71 29.5917 152.282 30.0242 153.982 30.0242C155.682 30.0242 157.275 29.6017 158.711 28.7542H158.714ZM173.78 30.9038C172.01 29.8088 170.613 28.3238 169.585 26.4438C168.557 24.5638 168.043 22.4913 168.043 20.2263C168.043 17.9613 168.557 15.8888 169.585 14.0088C170.613 12.1288 172.01 10.6438 173.78 9.54881C175.551 8.45381 177.492 7.90881 179.611 7.90881C181.11 7.90881 182.52 8.17381 183.841 8.70631C185.163 9.23881 186.321 9.99381 187.319 10.9713C188.317 11.9488 189.092 13.0938 189.649 14.4038V8.51131H192.222V31.9213H189.649V26.0738C189.092 27.3838 188.315 28.5263 187.319 29.5063C186.321 30.4838 185.163 31.2363 183.841 31.7588C182.52 32.2813 181.11 32.5438 179.611 32.5438C177.494 32.5438 175.551 31.9963 173.78 30.9038ZM184.872 28.7088C186.309 27.8463 187.447 26.6688 188.29 25.1738C189.132 23.6788 189.553 22.0238 189.553 20.2063C189.553 18.3888 189.132 16.7788 188.29 15.2838C187.447 13.7888 186.304 12.6063 184.859 11.7363C183.415 10.8663 181.842 10.4313 180.142 10.4313C178.442 10.4313 176.847 10.8588 175.403 11.7138C173.958 12.5688 172.815 13.7388 171.972 15.2263C171.13 16.7138 170.708 18.3738 170.708 20.2063C170.708 22.0388 171.132 23.7488 171.982 25.2438C172.832 26.7388 173.976 27.9063 175.413 28.7438C176.85 29.5838 178.427 30.0038 180.142 30.0038C181.858 30.0038 183.435 29.5738 184.872 28.7088ZM194.326 37.6065V39.9165L194.316 39.9215H198.117C199.74 39.9215 201.039 39.6365 202.012 39.0665C202.987 38.4965 203.81 37.634 204.482 36.479C205.156 35.324 205.979 33.559 206.952 31.1865L216.34 8.51645H213.466L205.911 27.074L205.332 28.8065L204.823 27.049L197.197 8.51395H194.368L203.92 31.554L203.712 32.1315C203.173 33.5165 202.684 34.584 202.252 35.3315C201.821 36.0765 201.292 36.644 200.665 37.029C200.041 37.414 199.223 37.6065 198.22 37.6065H194.326Z" fill="white"/>
<path fill-rule="evenodd" clip-rule="evenodd" d="M115.36 8.51313H122.672L114.73 19.6581L123.517 31.9156H115.826L108.316 20.7206V31.9156H101.969V0.078125H108.316V18.9131L115.36 8.51313ZM130.052 11.3809C131.724 9.3109 133.846 7.8834 136.86 7.8834H138.941V13.8034H136.188C132.612 13.8034 131.2 15.9334 131.2 19.7584V31.9159H124.853V8.5134H128.923L130.052 11.3809ZM88.5289 26.6281C85.1316 26.6274 82.4992 23.8026 82.4992 20.1781C82.4992 16.5531 85.0871 13.7981 88.5301 13.7981C91.0528 13.7981 93.1643 15.1431 94.1949 17.4356L99.9374 15.4531C98.2021 10.8206 93.9115 7.85057 88.5652 7.85057C81.4335 7.85057 76.0646 13.1306 76.0646 20.1431C76.0646 27.1556 81.4661 32.5781 88.5276 32.5781C93.9316 32.5781 98.2999 29.4881 100.025 24.7406L94.1824 22.7231C93.1093 25.2127 91.0861 26.6276 88.5289 26.6281ZM6.43212 20.1781C6.43212 23.8031 9.06516 26.6281 12.463 26.6281C15.0208 26.6281 17.0445 25.2131 18.1178 22.7231L23.9606 24.7406C22.2353 29.4881 17.867 32.5781 12.463 32.5781C5.40148 32.5781 0 27.1556 0 20.1431C0 13.1306 5.36637 7.85057 12.4981 7.85057C17.8444 7.85057 22.135 10.8206 23.8703 15.4531L18.1278 17.4356C17.0972 15.1431 14.9857 13.7981 12.463 13.7981C9.02002 13.7981 6.43212 16.5531 6.43212 20.1781ZM39.3726 7.85063C36.569 7.85063 34.0664 8.99312 32.2835 10.6856V0.078125H25.9366V31.9156H32.2835V19.6156C32.2835 15.8131 34.3849 13.5131 37.5495 13.5131C40.4032 13.5131 41.6445 15.2531 41.6445 18.7556V31.9156H47.9914V17.6981C47.9914 11.7381 44.6863 7.85063 39.3726 7.85063ZM50.0303 20.2156C50.0303 13.1656 55.2412 7.85057 62.2075 7.85057V7.85307C69.4144 7.85307 74.3595 13.3931 74.3595 20.1331C74.3595 20.7506 74.3169 21.3706 74.2367 21.9881H56.4699C57.0216 25.1831 59.1306 27.0206 62.2075 26.9406C64.2286 26.8881 66.1169 26.1581 67.3958 23.9106L73.1609 25.9031C71.1046 30.0281 67.0322 32.5781 62.2075 32.5781C55.2738 32.5781 50.0303 27.2656 50.0303 20.2156ZM62.2075 13.2506C59.3813 13.2506 57.3752 14.8931 56.638 17.6631H68.0152C67.1174 14.8031 65.0336 13.2506 62.2075 13.2506Z" fill="white"/>
</svg>
